<?xml version="1.0" encoding="UTF-8" standalone="no"?>
<!-- Created with Inkscape (http://www.inkscape.org/) -->

<svg
   width="512"
   height="512"
   viewBox="0 0 100 100"
   version="1.1"
   id="svg5"
   inkscape:version="1.2.1 (9c6d41e410, 2022-07-14)"
   sodipodi:docname="logos.svg"
   xmlns:inkscape="http://www.inkscape.org/namespaces/inkscape"
   xmlns:sodipodi="http://sodipodi.sourceforge.net/DTD/sodipodi-0.dtd"
   xmlns="http://www.w3.org/2000/svg"
   xmlns:svg="http://www.w3.org/2000/svg">
  <sodipodi:namedview
     id="namedview7"
     pagecolor="#505050"
     bordercolor="#ffffff"
     borderopacity="1"
     inkscape:showpageshadow="0"
     inkscape:pageopacity="0"
     inkscape:pagecheckerboard="1"
     inkscape:deskcolor="#505050"
     inkscape:document-units="mm"
     showgrid="false"
     inkscape:zoom="1.76315"
     inkscape:cx="8048.6628"
     inkscape:cy="155.97085"
     inkscape:window-width="2560"
     inkscape:window-height="1403"
     inkscape:window-x="0"
     inkscape:window-y="0"
     inkscape:window-maximized="1"
     inkscape:current-layer="layer1"
     showguides="true" />
  <defs
     id="defs2" />
  <g
     inkscape:label="Layer 1"
     inkscape:groupmode="layer"
     id="layer1"
     transform="translate(-550)">
    <g
       transform="matrix(0,0,0,0,613.91767,42.233451)"
       id="g1671"
       style="stroke-width:0.923861">
      <path
         inkscape:export-ydpi="96"
         inkscape:export-xdpi="96"
         style="fill:#000000;fill-opacity:1;stroke-width:0.923861"
         d="m -19.905488,97.133453 c -8.849556,0 -16.024226,7.171107 -16.030606,16.019377 l -5.41e-4,-5.5e-4 v 12.40568 l 5.41e-4,4.8e-4 c 0.0044,2.00889 1.633819,3.63535 3.644123,3.63535 0.0044,0 0.01239,-4.8e-4 0.01745,-4.8e-4 l 5.58e-4,4.8e-4 h 12.373613 c 8.851107,-0.005 16.0250024,-7.17866 16.0250024,-16.02971 0,-8.85366 -7.1769764,-16.030627 -16.0306234,-16.030627 z"
         id="path1667"
         inkscape:connector-curvature="0" />
      <path
         sodipodi:nodetypes="cccccccccccccccccccccccccccccsccccc"
         inkscape:connector-curvature="0"
         id="path1669"
         d="m -16.248447,103.30352 c -2.506574,0.13048 -4.623733,2.2466 -4.658139,4.84524 l -0.0035,0.01 -0.0157,6.46945 h 0.0035 c 0,1.49462 0.0081,3.0002 -0.0092,4.48735 -0.112571,1.95737 -2.067538,3.76784 -4.027474,3.72151 h -0.0626 c -1.970308,0.0448 -3.947066,-1.7706 -4.056241,-3.73715 0,-0.0199 -0.0035,-0.0397 -0.0035,-0.0595 -0.19903,-2.00341 1.537236,-4.14191 3.536928,-4.36846 1.085751,-0.0424 2.210322,-0.0457 3.337364,-0.0445 v -2.75315 c -1.164047,-0.004 -2.330168,0 -3.534438,0.0489 -0.0314,0 -0.06269,0.004 -0.09387,0.006 -3.607371,0.39555 -6.326211,3.74841 -5.982058,7.35856 0.216296,3.53358 3.293883,6.35741 6.826751,6.29491 3.543114,0.0657 6.61506,-2.78444 6.810438,-6.32303 0,-0.0199 0.0035,-0.0396 0.0035,-0.0595 0.01822,-1.54056 0.01156,-3.06517 0.01,-4.59997 h 0.05008 c 0.507036,-0.006 1.008857,-0.0128 1.510363,-0.0187 1.856334,-0.004 1.82145,-2.79767 -0.03437,-2.75484 -0.506755,0.006 -1.012294,0.0161 -1.513503,0.0217 h -0.0064 c 0,-1.21962 0,-2.45041 0.0064,-3.66519 0.01606,-1.18331 1.36739,-2.32915 2.526464,-2.10792 0.02815,0.006 0.05621,0.01 0.08444,0.0132 1.157314,0.14666 2.129112,1.52571 1.920186,2.68602 -0.16588,0.76153 0.332766,1.5088 1.099615,1.64789 0.766867,0.13906 1.496201,-0.38547 1.608321,-1.15672 0.49814,-2.76677 -1.417498,-5.50797 -4.240212,-5.89201 v 0 c -0.369038,-0.0668 -0.734967,-0.0886 -1.093047,-0.0701 z"
         style="color:#000000;font-style:normal;font-variant:normal;font-weight:normal;font-stretch:normal;font-size:medium;line-height:normal;font-family:sans-serif;font-variant-ligatures:normal;font-variant-position:normal;font-variant-caps:normal;font-variant-numeric:normal;font-variant-alternates:normal;font-feature-settings:normal;text-indent:0;text-align:start;text-decoration:none;text-decoration-line:none;text-decoration-style:solid;text-decoration-color:#000000;letter-spacing:normal;word-spacing:normal;text-transform:none;writing-mode:lr-tb;direction:ltr;text-orientation:mixed;dominant-baseline:auto;baseline-shift:baseline;text-anchor:start;white-space:normal;shape-padding:0;clip-rule:nonzero;display:inline;overflow:visible;visibility:visible;opacity:1;isolation:auto;mix-blend-mode:normal;color-interpolation:sRGB;color-interpolation-filters:linearRGB;solid-color:#000000;solid-opacity:1;vector-effect:none;fill:#ffffff;fill-opacity:1;fill-rule:nonzero;stroke:none;stroke-width:0.923861;stroke-linecap:round;stroke-linejoin:round;stroke-miterlimit:4;stroke-dasharray:none;stroke-dashoffset:0;stroke-opacity:1;color-rendering:auto;image-rendering:auto;shape-rendering:auto;text-rendering:auto;enable-background:accumulate" />
    </g>
    <g
       id="g290250"
       transform="matrix(1.1600518,0,0,1.1600518,654.47677,-112.84527)">
      <path
         id="path1648"
         style="fill:#51a2da;fill-opacity:1;fill-rule:nonzero;stroke:none;stroke-width:0.35278"
         d="m -46.297501,110.68027 c -9.409465,0 -17.035254,7.62317 -17.041392,17.03049 h -0.0033 v 13.19147 h 0.0033 c 0.0033,2.13569 1.734951,3.86445 3.871731,3.86445 h 0.01859 0.0033 13.155147 c 9.410518,-0.005 17.034119,-7.63167 17.034119,-17.0414 0,-9.4137 -7.627665,-17.04501 -17.041376,-17.04501 z m 3.454039,7.0134 c 2.862013,0 5.564243,2.19299 5.564243,5.21559 0,0.28031 -0.0014,0.56098 -0.04723,0.87894 -0.07915,0.80419 -0.812415,1.38091 -1.61262,1.26756 -0.800171,-0.11469 -1.342977,-0.87224 -1.194926,-1.66709 0.01316,-0.0908 0.01859,-0.23457 0.01859,-0.47941 0,-1.71374 -1.401445,-2.37534 -2.727621,-2.37534 -1.325402,0 -2.521086,1.11449 -2.524262,2.37534 0.02287,1.45848 0,2.90649 0,4.36203 l 2.458868,-0.0186 c 1.920471,-0.0398 1.941995,2.85491 0.02172,2.84022 l -2.480671,0.0186 c -0.0083,1.17308 0.0099,0.96006 0.0033,1.55086 0,0 0.02122,1.43289 -0.02172,2.52063 -0.296877,3.19461 -3.015923,5.74945 -6.283371,5.74945 -3.463237,0 -6.319706,-2.8334 -6.319706,-6.30516 0.104,-3.57153 2.954791,-6.37845 6.541248,-6.34511 l 1.997599,-0.0148 v 2.83659 l -1.997599,0.0186 h -0.01481 c -1.971155,0.0581 -3.657825,1.39399 -3.690111,3.50487 0,1.9234 1.554366,3.46496 3.483082,3.46496 1.925524,0 3.464932,-1.40243 3.464932,-3.46131 0.02188,-3.41443 -0.01481,-7.18616 -0.0033,-10.73259 0.0011,-0.19925 0.01152,-0.3577 0.03274,-0.57748 0.325147,-2.6257 2.673827,-4.6272 5.331808,-4.6272 z" />
      <g
         id="g1666"
         style="fill:#51a2da;fill-opacity:1;stroke-width:0.576963"
         transform="matrix(0.6018809,0,0,0.6018809,-126.40128,83.087468)">
        <path
           d="m 96.729167,125.3578 c -3.595373,1.38954 -6.03555,4.80292 -6.045574,9.01632 -0.0105,4.41352 3.082522,10.10943 9.487987,10.15149 4.30838,0.0283 6.46291,-1.58283 7.62603,-2.6768 0.77153,-0.68369 0.8255,-1.87009 0.11854,-2.61974 -0.70838,-0.75106 -1.89761,-0.76906 -2.6268,-0.0385 -0.86818,0.81562 -2.14666,2.02425 -5.772524,1.62173 -1.555755,-0.17216 -3.227339,-1.43528 -3.785318,-2.40173 l 11.879842,-5.05073 c 0.9084,-0.40358 1.32573,-1.45803 0.94121,-2.37421 -2.12076,-4.1731 -5.88103,-7.92444 -11.823393,-5.62783 z m 7.456683,5.48995 -9.885684,4.22249 c -0.705852,-2.63428 2.187448,-5.73353 3.76568,-6.31024 2.366314,-0.86468 4.977204,0.10837 6.120004,2.08775 z"
           style="fill:#51a2da;fill-opacity:1;fill-rule:evenodd;stroke:none;stroke-width:0.586126"
           id="path1650"
           sodipodi:nodetypes="ssscccccccsccsc" />
        <path
           id="path1652"
           style="fill:#51a2da;fill-opacity:1;stroke-width:17.1443;stroke-linecap:round;stroke-linejoin:round"
           d="m 142.75841,124.51519 a 10.043481,9.9623653 0 0 0 -10.04462,9.9635 10.043481,9.9623653 0 0 0 10.04462,9.96093 10.043481,9.9623653 0 0 0 10.04204,-9.96093 10.043481,9.9623653 0 0 0 -10.04204,-9.9635 z m 0,3.73185 a 6.2822799,6.2315417 0 0 1 6.28239,6.23165 6.2822799,6.2315417 0 0 1 -6.28239,6.23165 6.2822799,6.2315417 0 0 1 -6.2824,-6.23165 6.2822799,6.2315417 0 0 1 6.2824,-6.23165 z" />
        <path
           style="color:#000000;font-style:normal;font-variant:normal;font-weight:normal;font-stretch:normal;font-size:medium;line-height:normal;font-family:sans-serif;font-variant-ligatures:normal;font-variant-position:normal;font-variant-caps:normal;font-variant-numeric:normal;font-variant-alternates:normal;font-feature-settings:normal;text-indent:0;text-align:start;text-decoration:none;text-decoration-line:none;text-decoration-style:solid;text-decoration-color:#000000;letter-spacing:normal;word-spacing:normal;text-transform:none;writing-mode:lr-tb;direction:ltr;text-orientation:mixed;dominant-baseline:auto;baseline-shift:baseline;text-anchor:start;white-space:normal;shape-padding:0;clip-rule:nonzero;display:inline;overflow:visible;visibility:visible;isolation:auto;mix-blend-mode:normal;color-interpolation:sRGB;color-interpolation-filters:linearRGB;solid-color:#000000;solid-opacity:1;fill:#51a2da;fill-opacity:1;fill-rule:nonzero;stroke:none;stroke-width:3.51673;stroke-linecap:round;stroke-linejoin:round;stroke-miterlimit:4;stroke-dasharray:none;stroke-dashoffset:0;stroke-opacity:1;color-rendering:auto;image-rendering:auto;shape-rendering:auto;text-rendering:auto;enable-background:accumulate"
           d="m 157.27615,124.6433 c -1.59548,0 -1.86142,1.31669 -1.85308,1.84776 v 15.98997 c -0.0436,1.03365 0.81202,1.89464 1.88299,1.89464 1.07096,0 1.92667,-0.86099 1.88297,-1.89464 0,0 0.0284,-5.94671 0,-9.75342 -0.0284,-3.80671 3.06985,-4.63179 4.14789,-4.63179 0.80054,0 1.44015,0.44589 2.0745,0.42206 0.94151,-0.0354 1.71459,-0.6668 1.71459,-1.77397 -0.0283,-1.78855 -2.22269,-2.04245 -3.84053,-2.00941 -1.61785,0.0331 -2.9842,0.52982 -4.16721,1.2363 0,0 -0.24663,-1.3275 -1.84212,-1.3275 z"
           id="path1654"
           inkscape:connector-curvature="0"
           sodipodi:nodetypes="zccsczcsczcz" />
        <g
           style="fill:#51a2da;fill-opacity:1;stroke-width:0.93954"
           transform="matrix(1.7992734,0,0,1.7380239,67.446745,-121.99926)"
           id="g1658">
          <path
             style="color:#000000;font-style:normal;font-variant:normal;font-weight:normal;font-stretch:normal;font-size:medium;line-height:normal;font-family:sans-serif;font-variant-ligatures:normal;font-variant-position:normal;font-variant-caps:normal;font-variant-numeric:normal;font-variant-alternates:normal;font-feature-settings:normal;text-indent:0;text-align:start;text-decoration:none;text-decoration-line:none;text-decoration-style:solid;text-decoration-color:#000000;letter-spacing:normal;word-spacing:normal;text-transform:none;writing-mode:lr-tb;direction:ltr;text-orientation:mixed;dominant-baseline:auto;baseline-shift:baseline;text-anchor:start;white-space:normal;shape-padding:0;clip-rule:nonzero;display:inline;overflow:visible;visibility:visible;opacity:1;isolation:auto;mix-blend-mode:normal;color-interpolation:sRGB;color-interpolation-filters:linearRGB;solid-color:#000000;solid-opacity:1;fill:#51a2da;fill-opacity:1;fill-rule:nonzero;stroke:none;stroke-width:1.98866;stroke-linecap:butt;stroke-linejoin:miter;stroke-miterlimit:4;stroke-dasharray:none;stroke-dashoffset:0;stroke-opacity:1;color-rendering:auto;image-rendering:auto;shape-rendering:auto;text-rendering:auto;enable-background:accumulate"
             d="m 60.088341,141.88715 c -1.393394,0 -2.398273,0.42786 -3.13079,0.97048 -1.110459,0.82303 0.08453,2.54386 1.19499,1.72083 0.505399,-0.37438 0.881229,-0.57413 1.9358,-0.57413 1.312636,0.0273 2.368475,0.53812 2.368475,1.55443 -0.703746,0.461 -3.763534,0.84205 -5.406566,1.8093 -1.643032,0.96724 -1.555977,2.18804 -1.555977,2.98017 0,1.73757 1.769154,2.90976 3.301505,2.90976 1.532352,0 2.182891,-0.33275 3.682046,-1.39626 v 0.30438 c -0.04845,1.45961 2.09629,1.45961 2.047845,0 v -6.23787 c 0.0066,-2.58701 -1.787667,-4.00169 -4.437328,-4.04109 z m 2.439505,5.75572 c -5.12e-4,0.68595 0.0092,0.8837 -0.009,1.56941 -0.004,0.8235 -0.503683,1.20524 -1.026925,1.52032 -0.523236,0.31508 -1.586095,0.59147 -2.201906,0.62167 -0.710308,0.0243 -1.65271,-0.1418 -1.702203,-1.01389 5.12e-4,-0.5264 0.246817,-0.85289 0.65127,-1.21646 0.957742,-0.74385 2.255423,-0.99358 4.288768,-1.48105 z"
             id="path1656"
             inkscape:connector-curvature="0"
             sodipodi:nodetypes="ccccczszcccccscscccss" />
        </g>
        <path
           style="font-style:normal;font-variant:normal;font-weight:bold;font-stretch:normal;font-size:medium;line-height:25px;font-family:Comfortaa;-inkscape-font-specification:Comfortaa;letter-spacing:0px;word-spacing:0px;fill:#51a2da;fill-opacity:1;stroke:none;stroke-width:0.885329px;stroke-linecap:butt;stroke-linejoin:miter;stroke-opacity:1"
           d="m 128.56291,116.32562 c -1.15198,-0.0687 -2.00005,1.07152 -1.82333,2.15483 v 8.36367 c -3.63641,-3.04884 -9.55863,-2.83682 -12.91558,0.5392 -3.39481,3.02498 -4.03972,8.51062 -1.57068,12.28835 1.81366,2.85198 5.13136,4.88571 8.55043,4.72423 2.14993,-0.0196 4.2827,-0.9455 5.93583,-2.31651 -0.16962,1.08236 0.66623,2.22553 1.82333,2.15604 1.13581,0.0506 2.01523,-1.07045 1.84088,-2.15482 -0.0197,-8.04418 0.0197,-16.08885 -0.0197,-24.13274 -0.0591,-0.90718 -0.92676,-1.65309 -1.83241,-1.62225 z m -7.9771,12.01866 c 3.28298,-0.0857 6.21551,2.86987 6.15377,6.12271 0.069,3.25587 -2.87355,6.20634 -6.15377,6.12273 -3.11889,0.0827 -5.97784,-2.55935 -6.1372,-5.65665 -0.33212,-3.1928 2.28898,-6.30485 5.49957,-6.55826 0.21182,-0.0207 0.42464,-0.0306 0.63763,-0.0306 z"
           id="path1660"
           inkscape:connector-curvature="0"
           sodipodi:nodetypes="ccccccccccccccccccc" />
        <g
           style="fill:#51a2da;fill-opacity:1;stroke-width:0.963727"
           transform="matrix(1.7361841,0,0,1.7118711,84.821887,-122.89238)"
           id="g1664">
          <path
             style="font-style:normal;font-variant:normal;font-weight:bold;font-stretch:normal;font-size:medium;line-height:25px;font-family:Comfortaa;-inkscape-font-specification:Comfortaa;letter-spacing:0px;word-spacing:0px;fill:#51a2da;fill-opacity:1;stroke:none;stroke-width:2.03988;stroke-linecap:butt;stroke-linejoin:miter;stroke-miterlimit:4;stroke-dasharray:none;stroke-opacity:1"
             d="m -2.5312666,143.62929 v 11.47421 c -0.003,1.4145 2.12023294,1.4145 2.11718234,0 v -7.65727 H 1.7635608 c 0.5092674,0 0.9446445,-0.37386 0.9446445,-0.9741 0,-0.60024 -0.4664127,-0.9648 -0.9446445,-0.9648 h -2.17764176 v -1.76487 c 0,-1.1293 0.8711995,-2.06801 2.62476896,-2.04625 0.6099425,0.008 0.8261384,0.1567 1.048907,0.29442 1.2161282,0.81695 2.3869012,-1.07509 1.1131122,-1.79886 -0.7812122,-0.48483 -1.5111158,-0.65571 -2.3819993,-0.65571 -2.74449516,0 -4.5059235,2.11423 -4.5219745,4.09323 z"
             id="path1662"
             inkscape:connector-curvature="0"
             sodipodi:nodetypes="ccccczcccscccc" />
        </g>
      </g>
    </g>
  </g>
</svg>
